<mxfile host="app.diagrams.net" modified="2021-01-31T10:58:00.937Z" agent="5.0 (Macintosh; Intel Mac OS X 10_14_4) AppleWebKit/537.36 (KHTML, like Gecko) Chrome/88.0.4324.96 Safari/537.36" etag="jO5pPhtpeqxoXOggGiqt" version="14.2.9" type="github">
  <diagram id="cgM2qdaqJzlCMeoG_5Rx" name="Page-1">
    <mxGraphModel dx="786" dy="462" grid="1" gridSize="10" guides="1" tooltips="1" connect="1" arrows="1" fold="1" page="1" pageScale="1" pageWidth="827" pageHeight="1169" math="0" shadow="0">
      <root>
        <mxCell id="0" />
        <mxCell id="1" parent="0" />
        <mxCell id="fuu98fVYZTvmFnwrg2Wp-54" value="" style="rounded=0;whiteSpace=wrap;html=1;dashed=1;" vertex="1" parent="1">
          <mxGeometry x="20" y="100" width="470" height="310" as="geometry" />
        </mxCell>
        <mxCell id="fuu98fVYZTvmFnwrg2Wp-1" value="cce-log-agent" style="rounded=0;whiteSpace=wrap;html=1;" vertex="1" parent="1">
          <mxGeometry x="270" y="230" width="120" height="40" as="geometry" />
        </mxCell>
        <mxCell id="fuu98fVYZTvmFnwrg2Wp-2" value="&lt;b&gt;master&lt;/b&gt;" style="rounded=0;whiteSpace=wrap;html=1;" vertex="1" parent="1">
          <mxGeometry x="40" y="120" width="120" height="60" as="geometry" />
        </mxCell>
        <mxCell id="fuu98fVYZTvmFnwrg2Wp-3" value="" style="rounded=0;whiteSpace=wrap;html=1;" vertex="1" parent="1">
          <mxGeometry x="40" y="300" width="140" height="70" as="geometry" />
        </mxCell>
        <mxCell id="fuu98fVYZTvmFnwrg2Wp-4" value="" style="rounded=0;whiteSpace=wrap;html=1;" vertex="1" parent="1">
          <mxGeometry x="60" y="320" width="140" height="70" as="geometry" />
        </mxCell>
        <mxCell id="fuu98fVYZTvmFnwrg2Wp-5" value="&lt;b&gt;node&lt;/b&gt;" style="text;html=1;align=center;verticalAlign=middle;resizable=0;points=[];autosize=1;" vertex="1" parent="1">
          <mxGeometry x="40" y="300" width="40" height="20" as="geometry" />
        </mxCell>
        <mxCell id="fuu98fVYZTvmFnwrg2Wp-6" value="&lt;b&gt;node&lt;/b&gt;" style="text;html=1;align=center;verticalAlign=middle;resizable=0;points=[];autosize=1;" vertex="1" parent="1">
          <mxGeometry x="60" y="320" width="40" height="20" as="geometry" />
        </mxCell>
        <mxCell id="fuu98fVYZTvmFnwrg2Wp-8" value="" style="rounded=1;whiteSpace=wrap;html=1;" vertex="1" parent="1">
          <mxGeometry x="70" y="350" width="50" height="30" as="geometry" />
        </mxCell>
        <mxCell id="fuu98fVYZTvmFnwrg2Wp-9" value="Pod" style="rounded=1;whiteSpace=wrap;html=1;" vertex="1" parent="1">
          <mxGeometry x="90" y="360" width="50" height="30" as="geometry" />
        </mxCell>
        <mxCell id="fuu98fVYZTvmFnwrg2Wp-11" value="cce-monitor" style="rounded=0;whiteSpace=wrap;html=1;" vertex="1" parent="1">
          <mxGeometry x="540" y="170" width="120" height="50" as="geometry" />
        </mxCell>
        <mxCell id="fuu98fVYZTvmFnwrg2Wp-12" value="fetcher" style="rounded=0;whiteSpace=wrap;html=1;" vertex="1" parent="1">
          <mxGeometry x="530" y="320" width="120" height="60" as="geometry" />
        </mxCell>
        <mxCell id="fuu98fVYZTvmFnwrg2Wp-13" value="ES+Kibana" style="rounded=0;whiteSpace=wrap;html=1;" vertex="1" parent="1">
          <mxGeometry x="670" y="320" width="120" height="60" as="geometry" />
        </mxCell>
        <mxCell id="fuu98fVYZTvmFnwrg2Wp-15" value="ES" style="rounded=1;whiteSpace=wrap;html=1;" vertex="1" parent="1">
          <mxGeometry x="270" y="40" width="75" height="40" as="geometry" />
        </mxCell>
        <mxCell id="fuu98fVYZTvmFnwrg2Wp-17" value="" style="endArrow=classic;html=1;entryX=0;entryY=0.5;entryDx=0;entryDy=0;edgeStyle=elbowEdgeStyle;dashed=1;exitX=0.436;exitY=0;exitDx=0;exitDy=0;exitPerimeter=0;" edge="1" parent="1" source="fuu98fVYZTvmFnwrg2Wp-4" target="fuu98fVYZTvmFnwrg2Wp-1">
          <mxGeometry width="50" height="50" relative="1" as="geometry">
            <mxPoint x="130" y="320" as="sourcePoint" />
            <mxPoint x="230" y="270" as="targetPoint" />
            <Array as="points">
              <mxPoint x="120" y="290" />
              <mxPoint x="180" y="290" />
            </Array>
          </mxGeometry>
        </mxCell>
        <mxCell id="fuu98fVYZTvmFnwrg2Wp-18" value="节点组件日志" style="text;html=1;align=center;verticalAlign=middle;resizable=0;points=[];autosize=1;" vertex="1" parent="1">
          <mxGeometry x="170" y="230" width="90" height="20" as="geometry" />
        </mxCell>
        <mxCell id="fuu98fVYZTvmFnwrg2Wp-20" value="" style="endArrow=classic;html=1;dashed=1;exitX=1;exitY=0.5;exitDx=0;exitDy=0;entryX=0.5;entryY=1;entryDx=0;entryDy=0;edgeStyle=orthogonalEdgeStyle;" edge="1" parent="1" source="fuu98fVYZTvmFnwrg2Wp-9" target="fuu98fVYZTvmFnwrg2Wp-1">
          <mxGeometry width="50" height="50" relative="1" as="geometry">
            <mxPoint x="350" y="280" as="sourcePoint" />
            <mxPoint x="400" y="230" as="targetPoint" />
          </mxGeometry>
        </mxCell>
        <mxCell id="fuu98fVYZTvmFnwrg2Wp-23" value="" style="endArrow=classic;startArrow=classic;html=1;exitX=0.25;exitY=0;exitDx=0;exitDy=0;entryX=0.5;entryY=1;entryDx=0;entryDy=0;edgeStyle=orthogonalEdgeStyle;" edge="1" parent="1" source="fuu98fVYZTvmFnwrg2Wp-1" target="fuu98fVYZTvmFnwrg2Wp-2">
          <mxGeometry width="50" height="50" relative="1" as="geometry">
            <mxPoint x="350" y="280" as="sourcePoint" />
            <mxPoint x="400" y="230" as="targetPoint" />
          </mxGeometry>
        </mxCell>
        <mxCell id="fuu98fVYZTvmFnwrg2Wp-24" value="监听Pod状态的变化" style="text;html=1;align=center;verticalAlign=middle;resizable=0;points=[];autosize=1;" vertex="1" parent="1">
          <mxGeometry x="140" y="180" width="120" height="20" as="geometry" />
        </mxCell>
        <mxCell id="fuu98fVYZTvmFnwrg2Wp-25" value="容器日志" style="text;html=1;align=center;verticalAlign=middle;resizable=0;points=[];autosize=1;" vertex="1" parent="1">
          <mxGeometry x="210" y="350" width="60" height="20" as="geometry" />
        </mxCell>
        <mxCell id="fuu98fVYZTvmFnwrg2Wp-26" value="" style="endArrow=classic;html=1;exitX=1;exitY=0.5;exitDx=0;exitDy=0;edgeStyle=orthogonalEdgeStyle;dashed=1;" edge="1" parent="1" source="fuu98fVYZTvmFnwrg2Wp-2">
          <mxGeometry width="50" height="50" relative="1" as="geometry">
            <mxPoint x="350" y="280" as="sourcePoint" />
            <mxPoint x="300" y="230" as="targetPoint" />
          </mxGeometry>
        </mxCell>
        <mxCell id="fuu98fVYZTvmFnwrg2Wp-27" value="Master组件日志" style="text;html=1;align=center;verticalAlign=middle;resizable=0;points=[];autosize=1;" vertex="1" parent="1">
          <mxGeometry x="165" y="120" width="100" height="20" as="geometry" />
        </mxCell>
        <mxCell id="fuu98fVYZTvmFnwrg2Wp-30" value="BOS" style="rounded=1;whiteSpace=wrap;html=1;" vertex="1" parent="1">
          <mxGeometry x="354" y="40" width="68" height="40" as="geometry" />
        </mxCell>
        <mxCell id="fuu98fVYZTvmFnwrg2Wp-34" value="" style="endArrow=classic;startArrow=classic;html=1;exitX=0.75;exitY=0;exitDx=0;exitDy=0;entryX=0;entryY=0.5;entryDx=0;entryDy=0;edgeStyle=orthogonalEdgeStyle;" edge="1" parent="1" source="fuu98fVYZTvmFnwrg2Wp-1" target="fuu98fVYZTvmFnwrg2Wp-11">
          <mxGeometry width="50" height="50" relative="1" as="geometry">
            <mxPoint x="350" y="280" as="sourcePoint" />
            <mxPoint x="400" y="230" as="targetPoint" />
          </mxGeometry>
        </mxCell>
        <mxCell id="fuu98fVYZTvmFnwrg2Wp-35" value="获取、推送配置" style="text;html=1;align=center;verticalAlign=middle;resizable=0;points=[];autosize=1;" vertex="1" parent="1">
          <mxGeometry x="370" y="170" width="100" height="20" as="geometry" />
        </mxCell>
        <mxCell id="fuu98fVYZTvmFnwrg2Wp-40" value="kafaka" style="rounded=0;whiteSpace=wrap;html=1;" vertex="1" parent="1">
          <mxGeometry x="422" y="230" width="58" height="40" as="geometry" />
        </mxCell>
        <mxCell id="fuu98fVYZTvmFnwrg2Wp-42" value="" style="endArrow=classic;html=1;exitX=1;exitY=0.5;exitDx=0;exitDy=0;" edge="1" parent="1" source="fuu98fVYZTvmFnwrg2Wp-1">
          <mxGeometry width="50" height="50" relative="1" as="geometry">
            <mxPoint x="410" y="290" as="sourcePoint" />
            <mxPoint x="420" y="250" as="targetPoint" />
          </mxGeometry>
        </mxCell>
        <mxCell id="fuu98fVYZTvmFnwrg2Wp-43" value="" style="endArrow=classic;html=1;exitX=0;exitY=0.5;exitDx=0;exitDy=0;entryX=1;entryY=0.5;entryDx=0;entryDy=0;edgeStyle=orthogonalEdgeStyle;" edge="1" parent="1" source="fuu98fVYZTvmFnwrg2Wp-12" target="fuu98fVYZTvmFnwrg2Wp-40">
          <mxGeometry width="50" height="50" relative="1" as="geometry">
            <mxPoint x="410" y="290" as="sourcePoint" />
            <mxPoint x="460" y="240" as="targetPoint" />
          </mxGeometry>
        </mxCell>
        <mxCell id="fuu98fVYZTvmFnwrg2Wp-44" value="pull" style="edgeLabel;html=1;align=center;verticalAlign=middle;resizable=0;points=[];" vertex="1" connectable="0" parent="fuu98fVYZTvmFnwrg2Wp-43">
          <mxGeometry x="0.1867" y="-4" relative="1" as="geometry">
            <mxPoint x="11" y="4" as="offset" />
          </mxGeometry>
        </mxCell>
        <mxCell id="fuu98fVYZTvmFnwrg2Wp-45" value="" style="endArrow=classic;html=1;entryX=0;entryY=0.5;entryDx=0;entryDy=0;" edge="1" parent="1" target="fuu98fVYZTvmFnwrg2Wp-13">
          <mxGeometry width="50" height="50" relative="1" as="geometry">
            <mxPoint x="650" y="350" as="sourcePoint" />
            <mxPoint x="690" y="305" as="targetPoint" />
          </mxGeometry>
        </mxCell>
        <mxCell id="fuu98fVYZTvmFnwrg2Wp-46" value="" style="endArrow=none;html=1;startArrow=classic;startFill=1;endFill=0;entryX=0.5;entryY=0;entryDx=0;entryDy=0;exitX=0.5;exitY=1;exitDx=0;exitDy=0;edgeStyle=orthogonalEdgeStyle;" edge="1" parent="1" source="fuu98fVYZTvmFnwrg2Wp-15" target="fuu98fVYZTvmFnwrg2Wp-1">
          <mxGeometry width="50" height="50" relative="1" as="geometry">
            <mxPoint x="350" y="300" as="sourcePoint" />
            <mxPoint x="400" y="250" as="targetPoint" />
          </mxGeometry>
        </mxCell>
        <mxCell id="fuu98fVYZTvmFnwrg2Wp-47" value="" style="endArrow=classic;html=1;exitX=0.5;exitY=0;exitDx=0;exitDy=0;edgeStyle=orthogonalEdgeStyle;entryX=0.25;entryY=1;entryDx=0;entryDy=0;" edge="1" parent="1" source="fuu98fVYZTvmFnwrg2Wp-1" target="fuu98fVYZTvmFnwrg2Wp-30">
          <mxGeometry width="50" height="50" relative="1" as="geometry">
            <mxPoint x="350" y="300" as="sourcePoint" />
            <mxPoint x="397" y="80" as="targetPoint" />
          </mxGeometry>
        </mxCell>
        <mxCell id="fuu98fVYZTvmFnwrg2Wp-51" value="push" style="text;html=1;align=center;verticalAlign=middle;resizable=0;points=[];autosize=1;" vertex="1" parent="1">
          <mxGeometry x="314" y="130" width="40" height="20" as="geometry" />
        </mxCell>
        <mxCell id="fuu98fVYZTvmFnwrg2Wp-52" value="" style="endArrow=none;dashed=1;html=1;" edge="1" parent="1">
          <mxGeometry width="50" height="50" relative="1" as="geometry">
            <mxPoint x="500" y="440" as="sourcePoint" />
            <mxPoint x="500" y="10" as="targetPoint" />
          </mxGeometry>
        </mxCell>
        <mxCell id="fuu98fVYZTvmFnwrg2Wp-55" value="&lt;b&gt;网络B区&lt;/b&gt;" style="text;html=1;align=center;verticalAlign=middle;resizable=0;points=[];autosize=1;" vertex="1" parent="1">
          <mxGeometry x="510" y="50" width="60" height="20" as="geometry" />
        </mxCell>
        <mxCell id="fuu98fVYZTvmFnwrg2Wp-56" value="&lt;b&gt;网络A区&lt;/b&gt;" style="text;html=1;align=center;verticalAlign=middle;resizable=0;points=[];autosize=1;" vertex="1" parent="1">
          <mxGeometry x="430" y="50" width="60" height="20" as="geometry" />
        </mxCell>
      </root>
    </mxGraphModel>
  </diagram>
</mxfile>
